<svg id="Capa_1" enable-background="new 0 0 502.845 502.845" height="512" viewBox="0 0 502.845 502.845" width="512" xmlns="http://www.w3.org/2000/svg"><path d="m78.416 217.855 67.109-88.014c5.341-7.004 13.645-11.115 22.453-11.115h90.572c9.803 0 17.75 7.947 17.75 17.75 0 9.803-7.947 17.75-17.75 17.75h-70.935c-7.839 0-14.194 6.355-14.194 14.194 0 7.839 6.355 14.194 14.194 14.194h96.621c15.573 0 29.656 9.257 35.831 23.554l5.048 11.688v19.342h-246.699z" fill="#fb2b3a"/><path d="m326.817 353.207h98.259c7.15 0 12.946-5.796 12.946-12.946v-2.455c0-7.15-5.796-12.946-12.946-12.946h-115.599c-7.38 0-13.363-5.983-13.363-13.363 0-7.38 5.983-13.363 13.363-13.363h127.511c7.15 0 12.946-5.796 12.946-12.946v-.478c0-7.15-5.796-12.946-12.946-12.946h-34.126c-7.15 0-12.946-5.796-12.946-12.946v-1.09c0-7.15 5.796-12.946 12.946-12.946h62.144c7.15 0 12.946-5.796 12.946-12.946 0-7.15-5.796-12.946-12.946-12.946h-194.905v134.005z" fill="#01d0fb"/><path d="m307.13 310.851c.338-7.187 6.53-12.717 13.725-12.717h19.719v-27.62h-295.34v41.382c0 35.745 28.977 64.722 64.722 64.722h165.896c30.224 0 55.609-20.716 62.73-48.724.391-1.539-.787-3.035-2.375-3.035h-15.729c-7.595.001-13.709-6.334-13.348-14.008z" fill="#62dbfb"/><path d="m315.605 351.187h-165.895c-35.745 0-64.722-28.977-64.722-64.722v-15.95h-39.754v41.382c0 35.745 28.977 64.722 64.722 64.722h165.896c21.522 0 40.584-10.51 52.351-26.672-4.077.804-8.285 1.24-12.598 1.24z" fill="#01c0fa"/><path d="" fill="#62dbfb"/><path d="m45.234 270.515v41.382c0 4.166.409 8.235 1.161 12.183h269.618c-5.252-1.864-9-6.906-8.896-12.822.129-7.351 6.394-13.123 13.746-13.123h17.553c1.192 0 2.158-.966 2.158-2.158v-25.462z" fill="#c8effe"/><path d="m84.988 270.515h-39.754v41.382c0 4.166.409 8.235 1.161 12.183h50.662c-7.589-10.603-12.069-23.582-12.069-37.615z" fill="#99e6fc"/><path d="m347.495 270.515h-309.181c-3.69 0-6.681-2.991-6.681-6.681v-12.38c0-18.556 15.043-33.599 33.599-33.599h255.346c18.556 0 33.599 15.043 33.599 33.599v12.38c-.001 3.689-2.992 6.681-6.682 6.681z" fill="#fe646f"/><path d="m124.876 250.289c-10.527 0-19.061-8.534-19.061-19.061 0-4.754.993-9.274 2.774-13.373h-43.358c-18.556 0-33.599 15.043-33.599 33.599v12.38c0 3.69 2.991 6.681 6.681 6.681h309.181c3.69 0 6.681-2.991 6.681-6.681v-12.38c0-.39-.016-.777-.029-1.164h-229.27z" fill="#fd4755"/><g fill="#01d0fb"><path d="m461.847 384.12h-454.347c-4.142 0-7.5-3.357-7.5-7.5s3.358-7.5 7.5-7.5h454.347c4.142 0 7.5 3.357 7.5 7.5s-3.358 7.5-7.5 7.5z"/><path d="m488.672 353.207h-5.215c-7.828 0-14.174-6.346-14.174-14.174 0-7.828 6.346-14.174 14.174-14.174h5.215c7.828 0 14.174 6.346 14.174 14.174-.001 7.828-6.347 14.174-14.174 14.174z"/></g></svg>